:SAMPLES-PER-SECOND 30
:FULLY-SPECIFIED
:DEGREES
35
root  -2.1918 40.8934 0.561283 -171.497 -88.704 171.151
RightUpLeg  2.25298 -1.39875 -1.8778
RightLeg  0.19313 -18.4993 -0.45935
RightFoot  -0.866643 -0.366805 3.92137
RightToes  -3.11842e-008 1.75238e-005 3.56266e-009
Spine  -3.99522 -7.45156 -15.741
Spine1  4.10192 -13.0341 29.4798
HEad  -7.70582 16.8949 -13.9272
LeftShoulder1  0.148528 3.06706 -27.9049
LeftArm  -43.6558 18.8151 14.2481
LeftForeArm  45.6033 -5.58669 1.86436
LeftHand  -0.219457 -1.82413 3.72414
RightShoulder  -2.31017 18.1598 -21.8422
RightArm  -50.7778 4.76599 13.8978
RightForeArm  32.3661 9.73507 -3.21944
RightHand  -0.41276 6.11 -4.49343
LeftUpLeg  1.2626 0.373217 1.11273
LeftLeg  0.969656 14.7781 -0.0529318
LeftFoot  -1.62232 0.0916929 -1.01105
LeftToes  4.7713e-008 1.46693e-008 1.32589e-009
36
root  -2.23287 40.8937 0.563503 -174.021 -88.2407 173.733
RightUpLeg  2.2366 -1.35538 -1.86213
RightLeg  0.0929742 -18.093 -0.45243
RightFoot  -0.900172 -0.370721 3.99457
RightToes  -3.11842e-008 1.75238e-005 3.56266e-009
Spine  -4.09704 -7.43837 -15.9667
Spine1  4.00327 -13.1516 30.2943
HEad  -8.33264 17.421 -14.0847
LeftShoulder1  0.187593 2.96955 -28.9689
LeftArm  -43.8284 20.4555 13.3306
LeftForeArm  40.6558 -6.20208 1.88349
LeftHand  -0.253421 -1.74573 4.2855
RightShoulder  -2.34717 18.749 -21.7051
RightArm  -51.7504 4.40709 14.0188
RightForeArm  32.3987 12.0448 -2.73728
RightHand  -0.430492 6.85065 -4.42443
LeftUpLeg  1.34117 0.313681 1.07428
LeftLeg  0.953959 15.3841 0.0385591
LeftFoot  -1.69869 0.0986102 -1.11331
LeftToes  4.7713e-008 1.46693e-008 1.32589e-009
37
root  -2.26155 40.8941 0.555446 -175.605 -87.8327 175.445
RightUpLeg  2.0835 -1.26859 -1.81254
RightLeg  0.110065 -17.7928 -0.481076
RightFoot  -0.87519 -0.364297 3.90918
RightToes  -3.11842e-008 1.75238e-005 3.56266e-009
Spine  -4.42518 -7.50385 -15.9788
Spine1  4.04923 -13.2713 30.6544
HEad  -8.36692 17.7476 -13.7142
LeftShoulder1  0.240459 2.83441 -29.815
LeftArm  -44.1754 22.0658 12.6406
LeftForeArm  37.6998 -7.25912 2.15473
LeftHand  -0.311119 -2.81741 4.63197
RightShoulder  -2.45692 19.4851 -21.8563
RightArm  -53.0467 3.78579 14.1257
RightForeArm  33.4933 14.3198 -1.84631
RightHand  -0.435842 7.15651 -4.38138
LeftUpLeg  1.27782 0.35958 1.11603
LeftLeg  0.984983 15.6657 0.0308568
LeftFoot  -1.75166 0.10447 -1.19792
LeftToes  4.7713e-008 1.46693e-008 1.32589e-009
38
root  -2.3158 40.8943 0.537167 -175.515 -87.3603 175.363
RightUpLeg  2.12529 -1.20135 -1.79744
RightLeg  0.0541791 -17.3846 -0.534333
RightFoot  -0.913788 -0.359403 3.85106
RightToes  -3.11842e-008 1.75238e-005 3.56266e-009
Spine  -4.79071 -7.53886 -15.9761
Spine1  4.24612 -13.3563 30.8267
HEad  -8.76115 18.4737 -13.2158
LeftShoulder1  0.277261 2.74704 -30.5216
LeftArm  -44.5622 23.1377 12.1558
LeftForeArm  34.388 -8.29786 2.31713
LeftHand  -0.260751 -1.67417 4.4534
RightShoulder  -2.60241 20.1469 -22.2085
RightArm  -54.9135 3.30307 14.3706
RightForeArm  34.076 16.5622 -0.719351
RightHand  -0.452878 7.00319 -4.58342
LeftUpLeg  1.54968 0.415255 1.11692
LeftLeg  0.694866 16.1258 -0.0730384
LeftFoot  -1.67898 0.0975253 -1.08219
LeftToes  4.7713e-008 1.46693e-008 1.32589e-009
39
root  -2.34571 40.8946 0.515555 -175.71 -87.3018 175.705
RightUpLeg  2.01923 -1.16559 -1.76046
RightLeg  0.031506 -17.3732 -0.508397
RightFoot  -0.907766 -0.356975 3.83632
RightToes  -3.11842e-008 1.75238e-005 3.56266e-009
Spine  -5.27946 -7.6929 -16.0288
Spine1  4.51175 -13.5827 31.0971
HEad  -8.73752 18.6047 -12.8848
LeftShoulder1  0.333837 2.60602 -31.0943
LeftArm  -44.3485 24.1157 12.0181
LeftForeArm  32.564 -9.57605 1.94721
LeftHand  -0.268837 -1.97894 4.4179
RightShoulder  -2.73845 20.771 -22.5158
RightArm  -57.1228 2.71834 14.2984
RightForeArm  35.1605 18.6287 0.438348
RightHand  -0.50915 7.59198 -4.90878
LeftUpLeg  1.47045 0.491214 1.20234
LeftLeg  0.634599 16.0709 -0.173273
LeftFoot  -1.6907 0.105751 -1.20084
LeftToes  4.7713e-008 1.46693e-008 1.32589e-009
40
root  -2.39477 40.8947 0.489308 -175.117 -87.5488 175.152
RightUpLeg  2.10602 -1.19007 -1.7371
RightLeg  -0.00370434 -17.5956 -0.476527
RightFoot  -0.966819 -0.353503 3.81826
RightToes  -3.11842e-008 1.75238e-005 3.56266e-009
Spine  -5.51931 -7.92908 -16.2832
Spine1  4.51301 -13.893 31.6343
HEad  -9.34516 18.7297 -12.8704
LeftShoulder1  0.38151 2.49174 -31.5869
LeftArm  -44.379 25.2289 11.8594
LeftForeArm  31.8359 -12.0014 1.27224
LeftHand  -0.2657 -1.54598 4.62461
RightShoulder  -2.87451 21.3451 -22.8336
RightArm  -58.8857 2.02279 14.2146
RightForeArm  35.5896 21.0001 1.92855
RightHand  -0.507356 7.18908 -5.02762
LeftUpLeg  1.5386 0.449978 1.20447
LeftLeg  0.496772 15.8704 -0.153811
LeftFoot  -1.62144 0.102781 -1.14395
LeftToes  4.7713e-008 1.46693e-008 1.32589e-009
41
root  -2.43784 40.8946 0.460078 -173.618 -87.9675 173.696
RightUpLeg  2.25671 -1.21135 -1.70434
RightLeg  -0.151213 -17.9684 -0.407309
RightFoot  -0.999485 -0.345171 3.7372
RightToes  -3.11842e-008 1.75238e-005 3.56266e-009
Spine  -5.90155 -8.2333 -16.7614
Spine1  4.74266 -14.3677 32.4458
HEad  -9.9147 19.1592 -13.144
LeftShoulder1  0.508442 2.17842 -32.2657
LeftArm  -46.3288 26.2525 11.4122
LeftForeArm  31.4877 -15.1846 0.46847
LeftHand  -0.307752 -1.12601 5.60218
RightShoulder  -3.02989 22.0118 -23.1713
RightArm  -59.6551 0.826664 14.3951
RightForeArm  34.9628 24.1981 3.35984
RightHand  -0.548474 7.39287 -5.32888
LeftUpLeg  1.58564 0.417645 1.21062
LeftLeg  0.326888 15.5217 -0.163166
LeftFoot  -1.51092 0.0972026 -1.04491
LeftToes  4.7713e-008 1.46693e-008 1.32589e-009
42
root  -2.47372 40.8987 0.417291 -169.456 -88.4056 169.568
RightUpLeg  2.35172 -1.30476 -1.74739
RightLeg  -0.19143 -18.2942 -0.336119
RightFoot  -1.11676 -0.342523 3.74865
RightToes  -3.11842e-008 1.75238e-005 3.56266e-009
Spine  -6.37202 -8.46811 -17.2466
Spine1  5.15144 -14.7505 32.9923
HEad  -10.5397 19.0301 -13.4364
LeftShoulder1  0.671087 1.77578 -32.7578
LeftArm  -48.9428 27.9224 10.483
LeftForeArm  33.0196 -20.3906 -1.74011
LeftHand  -0.366805 -1.43646 6.43554
RightShoulder  -3.18503 22.3535 -23.6679
RightArm  -59.4021 -0.812584 15.8473
RightForeArm  32.3857 28.8996 4.4966
RightHand  -0.605001 7.7038 -5.71731
LeftUpLeg  1.58317 0.414425 1.24024
LeftLeg  0.285853 15.0424 -0.200515
LeftFoot  -1.52068 0.11794 -1.34446
LeftToes  4.7713e-008 1.46693e-008 1.32589e-009
43
root  -2.50248 40.8993 0.385813 -163.589 -88.7767 163.787
RightUpLeg  2.33582 -1.35806 -1.75794
RightLeg  -0.132604 -18.6605 -0.309521
RightFoot  -1.18058 -0.335303 3.68219
RightToes  -3.11842e-008 1.75238e-005 3.56266e-009
Spine  -6.74234 -8.71558 -17.66
Spine1  5.46951 -15.1369 33.5321
HEad  -11.5685 19.3134 -14.1117
LeftShoulder1  0.794339 1.48799 -33.3133
LeftArm  -48.6551 30.6533 8.40799
LeftForeArm  29.7735 -28.7293 -4.70846
LeftHand  -0.389545 0.296722 8.9956
RightShoulder  -3.20923 22.2772 -23.8138
RightArm  -57.9266 -2.32182 18.0635
RightForeArm  29.8037 34.7823 6.05299
RightHand  -0.691558 7.87262 -6.39902
LeftUpLeg  1.60463 0.375198 1.23086
LeftLeg  0.0185451 14.7039 -0.256958
LeftFoot  -1.34801 0.103568 -1.10576
LeftToes  4.7713e-008 1.46693e-008 1.32589e-009
44
root  -2.51818 40.9056 0.360794 -153.042 -89.0408 153.302
RightUpLeg  2.30837 -1.45593 -1.85001
RightLeg  -0.0685415 -18.8733 -0.286881
RightFoot  -1.26836 -0.338142 3.75413
RightToes  -3.11842e-008 1.75238e-005 3.56266e-009
Spine  -6.80582 -9.04845 -18.275
Spine1  5.48723 -15.5855 34.2343
HEad  -12.4446 20.1487 -14.7444
LeftShoulder1  0.922792 1.22186 -34.3519
LeftArm  -46.684 34.3228 5.55779
LeftForeArm  25.2911 -39.6545 -7.68111
LeftHand  -0.399543 1.41419 11.5295
RightShoulder  -3.08948 22.6672 -23.0887
RightArm  -55.1991 -4.53624 20.5407
RightForeArm  27.327 42.0593 8.2997
RightHand  -0.816791 7.92706 -7.46949
LeftUpLeg  1.66462 0.350659 1.19954
LeftLeg  -0.270072 14.4236 -0.371641
LeftFoot  -1.22809 0.120967 -1.36529
LeftToes  4.7713e-008 1.46693e-008 1.32589e-009
45
root  -2.52507 40.9054 0.332145 -152.156 -89.2136 152.407
RightUpLeg  2.40926 -1.41997 -1.73053
RightLeg  -0.201165 -19.1002 -0.202287
RightFoot  -1.23375 -0.327743 3.60654
RightToes  -3.11842e-008 1.75238e-005 3.56266e-009
Spine  -6.81834 -9.43727 -18.6554
Spine1  5.65336 -16.1205 34.7053
HEad  -13.3631 20.8931 -15.3243
LeftShoulder1  1.05197 0.97753 -35.5102
LeftArm  -47.3696 38.362 1.98362
LeftForeArm  28.6003 -50.6545 -11.4916
LeftHand  -0.491995 -0.103432 10.5356
RightShoulder  -2.86957 23.5453 -21.7256
RightArm  -53.2454 -6.84676 23.694
RightForeArm  25.1273 49.8691 11.4304
RightHand  -0.817038 7.64922 -7.60904
LeftUpLeg  1.67263 0.452202 1.34239
LeftLeg  -0.288234 14.1665 -0.391267
LeftFoot  -1.19351 0.12031 -1.34708
LeftToes  4.7713e-008 1.46693e-008 1.32589e-009
46
root  -2.52933 40.9059 0.309772 -148.705 -89.2355 148.987
RightUpLeg  2.39856 -1.41556 -1.72844
RightLeg  -0.216039 -19.135 -0.196686
RightFoot  -1.28146 -0.330038 3.64965
RightToes  -3.11842e-008 1.75238e-005 3.56266e-009
Spine  -6.95255 -9.85481 -19.578
Spine1  6.03475 -16.8726 35.9163
HEad  -14.4709 22.0322 -16.2449
LeftShoulder1  1.15983 0.824867 -37.1615
LeftArm  -49.9079 41.9276 -3.31003
LeftForeArm  32.7745 -61.3073 -17.6884
LeftHand  -0.505934 -1.94566 8.19712
RightShoulder  -2.65104 24.6777 -20.36
RightArm  -50.4619 -9.35698 26.6584
RightForeArm  23.2143 57.4113 15.6816
RightHand  -0.844172 8.08586 -7.61875
LeftUpLeg  1.74678 0.381413 1.31697
LeftLeg  -0.50101 14.2225 -0.379087
LeftFoot  -1.08693 0.126832 -1.44193
LeftToes  4.7713e-008 1.46693e-008 1.32589e-009
47
root  -2.52886 40.9067 0.300427 -156.88 -89.1783 157.13
RightUpLeg  2.49303 -1.36298 -1.63453
RightLeg  -0.374998 -19.0901 -0.125992
RightFoot  -1.22254 -0.327783 3.61693
RightToes  -3.11842e-008 1.75238e-005 3.56266e-009
Spine  -6.95107 -10.3584 -20.2293
Spine1  6.37287 -17.6904 36.8453
HEad  -15.1033 23.5998 -17.4506
LeftShoulder1  1.13664 0.95672 -38.3894
LeftArm  -54.2747 44.8025 -10.898
LeftForeArm  39.9568 -70.874 -29.3965
LeftHand  -0.463152 -3.25909 6.44089
RightShoulder  -2.20538 26.1249 -18.1304
RightArm  -48.9187 -10.6457 29.4178
RightForeArm  27.1265 63.2498 20.0466
RightHand  -0.663732 8.56351 -5.86984
LeftUpLeg  1.77985 0.425403 1.39642
LeftLeg  -0.479046 14.274 -0.336696
LeftFoot  -1.08054 0.127458 -1.44508
LeftToes  4.7713e-008 1.46693e-008 1.32589e-009
48
root  -2.52613 40.9073 0.298898 -166.265 -88.8695 166.415
RightUpLeg  2.61883 -1.31157 -1.57247
RightLeg  -0.524584 -18.8042 -0.0912306
RightFoot  -1.15744 -0.320983 3.50953
RightToes  -3.11842e-008 1.75238e-005 3.56266e-009
Spine  -6.88644 -10.8176 -20.9761
Spine1  6.6892 -18.5567 38.1159
HEad  -16.2733 24.1083 -19.3284
LeftShoulder1  1.22624 0.852367 -39.9725
LeftArm  -60.4882 46.4256 -20.229
LeftForeArm  59.0307 -77.7423 -52.5774
LeftHand  -0.502895 -3.82313 6.60076
RightShoulder  -1.64792 27.7223 -15.6517
RightArm  -46.8979 -10.6486 31.0679
RightForeArm  32.1853 67.0309 23.8596
RightHand  -0.937362 9.07608 -7.89027
LeftUpLeg  1.93568 0.503355 1.46286
LeftLeg  -0.498976 14.5283 -0.345937
LeftFoot  -1.10312 0.131516 -1.50009
LeftToes  4.7713e-008 1.46693e-008 1.32589e-009
49
root  -2.49586 40.9072 0.311084 -173.7 -88.4499 173.677
RightUpLeg  2.73769 -1.22651 -1.4847
RightLeg  -0.589335 -18.4624 -0.0957088
RightFoot  -1.08604 -0.321973 3.51998
RightToes  -3.11842e-008 1.75238e-005 3.56266e-009
Spine  -6.87687 -11.0685 -20.9207
Spine1  7.05909 -18.9638 38.0849
HEad  -16.7667 25.5571 -20.7437
LeftShoulder1  1.24844 0.874428 -41.0944
LeftArm  -63.047 46.3086 -27.3335
LeftForeArm  92.2266 -80.148 -87.4386
LeftHand  -0.505496 -3.74991 6.68693
RightShoulder  -1.00847 28.3533 -13.257
RightArm  -45.6321 -8.61503 33.3987
RightForeArm  35.142 68.9745 26.4632
RightHand  -1.015 8.88442 -8.59913
LeftUpLeg  2.06923 0.64832 1.57136
LeftLeg  -0.34865 14.7909 -0.349461
LeftFoot  -1.19543 0.131527 -1.48916
LeftToes  4.7713e-008 1.46693e-008 1.32589e-009
